<svg xmlns="http://www.w3.org/2000/svg" viewBox="0 0 512 512" role="img" aria-label="meowtronome icon">
  <defs>
    <linearGradient id="bg" x1="74" y1="52" x2="424" y2="456">
      <stop stop-color="#fff8ef"/>
      <stop offset=".58" stop-color="#f4d8cd"/>
      <stop offset="1" stop-color="#cdd9cc"/>
    </linearGradient>
    <linearGradient id="fur" x1="143" y1="136" x2="375" y2="391">
      <stop stop-color="#f6c7ad"/>
      <stop offset=".58" stop-color="#e9977f"/>
      <stop offset="1" stop-color="#b86d61"/>
    </linearGradient>
    <linearGradient id="wood" x1="182" y1="158" x2="333" y2="431">
      <stop stop-color="#8f6a58"/>
      <stop offset="1" stop-color="#533d35"/>
    </linearGradient>
  </defs>
  <rect width="512" height="512" rx="112" fill="url(#bg)"/>
  <path d="M155 415h202l-30-242c-5-38-31-64-71-64s-66 26-71 64l-30 242Z" fill="url(#wood)"/>
  <path d="M190 395h132l-22-211c-3-25-20-42-44-42s-41 17-44 42l-22 211Z" fill="#f6e3cc"/>
  <path d="M186 197l-41-68 77 28c11-8 22-12 34-12s23 4 34 12l77-28-41 68c10 17 15 37 15 58 0 62-38 107-85 107s-85-45-85-107c0-21 5-41 15-58Z" fill="url(#fur)"/>
  <path d="M160 148l47 49M352 148l-47 49" fill="none" stroke="#fff1dd" stroke-width="18" stroke-linecap="round" opacity=".72"/>
  <path d="M256 246V156" fill="none" stroke="#2e2824" stroke-width="14" stroke-linecap="round"/>
  <circle cx="256" cy="246" r="22" fill="#2e2824"/>
  <path d="M228 243c-7-7-18-7-25 0M284 243c7-7 18-7 25 0" fill="none" stroke="#2e2824" stroke-width="10" stroke-linecap="round"/>
  <path d="M247 275h18l-9 10Z" fill="#2e2824"/>
  <path d="M234 305c13 12 31 12 44 0" fill="none" stroke="#2e2824" stroke-width="10" stroke-linecap="round"/>
  <path d="M128 271h72M312 271h72M133 305h72M307 305h72" fill="none" stroke="#69453f" stroke-width="9" stroke-linecap="round" opacity=".68"/>
  <path d="M165 417h182" fill="none" stroke="#2e2824" stroke-width="22" stroke-linecap="round"/>
</svg>
