<svg xmlns="http://www.w3.org/2000/svg" width="128" height="128" viewBox="0 0 128 128" role="img" aria-label="Meowtronome icon">
  <defs>
    <filter id="d" x="-35%" y="-35%" width="170%" height="170%" color-interpolation-filters="sRGB">
      <feDropShadow dx="0" dy="10" stdDeviation="6" flood-color="#2b211d" flood-opacity=".15"/>
      <feDropShadow dx="0" dy="1" stdDeviation="1" flood-color="#fffaf4" flood-opacity=".52"/>
    </filter>
    <linearGradient id="cream" x1="25" y1="18" x2="103" y2="111" gradientUnits="userSpaceOnUse">
      <stop stop-color="#fff8ef"/>
      <stop offset="1" stop-color="#e8dac8"/>
    </linearGradient>
    <linearGradient id="clay" x1="22" y1="20" x2="108" y2="112" gradientUnits="userSpaceOnUse">
      <stop stop-color="#e7a091"/>
      <stop offset=".56" stop-color="#c17660"/>
      <stop offset="1" stop-color="#865443"/>
    </linearGradient>
    <linearGradient id="gold" x1="28" y1="18" x2="104" y2="110" gradientUnits="userSpaceOnUse">
      <stop stop-color="#f0cf78"/>
      <stop offset=".58" stop-color="#c58f43"/>
      <stop offset="1" stop-color="#82572c"/>
    </linearGradient>
    <linearGradient id="teal" x1="22" y1="24" x2="108" y2="112" gradientUnits="userSpaceOnUse">
      <stop stop-color="#8db4a8"/>
      <stop offset=".56" stop-color="#5f8b83"/>
      <stop offset="1" stop-color="#3d6460"/>
    </linearGradient>
    <linearGradient id="ink" x1="26" y1="24" x2="104" y2="112" gradientUnits="userSpaceOnUse">
      <stop stop-color="#6a5c4c"/>
      <stop offset="1" stop-color="#3d352e"/>
    </linearGradient>
  </defs>
  <g filter="url(#d)">
    <path d="M32 103 43 42 36 22l23 9c4-2 8-3 13-3s9 1 13 3l23-9-7 20 11 61Z" fill="url(#cream)"/>
    <path d="M43 42 36 22l22 9M85 31l23-9-7 20" fill="url(#clay)" opacity=".9"/>
    <path d="M38 99h68" fill="none" stroke="url(#ink)" stroke-width="6" stroke-linecap="round" opacity=".68"/>
    <path d="M50 92h46L89 49c-1-9-8-15-17-15s-16 6-17 15Z" fill="url(#clay)" opacity=".18"/>
    <path d="M64 39v35" fill="none" stroke="url(#ink)" stroke-width="4.8" stroke-linecap="round"/>
    <circle cx="64" cy="74" r="7.5" fill="url(#gold)"/>
    <path d="M53 61c3-3 8-3 11 0M75 61c3-3 8-3 11 0" fill="none" stroke="url(#ink)" stroke-width="4" stroke-linecap="round"/>
    <path d="M62 70h4l-2 3Z" fill="#463b32"/>
    <path d="M56 80c5 5 12 5 17 0" fill="none" stroke="url(#ink)" stroke-width="3.5" stroke-linecap="round"/>
    <path d="M39 71h17M72 71h17M40 80h17M71 80h17" fill="none" stroke="url(#teal)" stroke-width="3.2" stroke-linecap="round" opacity=".68"/>
    <path d="M50 99c7-5 15-7 24-7s17 2 24 7" fill="none" stroke="url(#gold)" stroke-width="4.5" stroke-linecap="round" opacity=".72"/>
  </g>
</svg>
